HIERARCHY
ROOT root
{
	OFFSET 0.000000 0.000000 0.000000
	CHANNELS 6 Xposition Yposition Zposition Zrotation Yrotation Xrotation
	JOINT lhip
	{
		OFFSET 0.058581 -0.082280 -0.017664
		CHANNELS 3 Zrotation Yrotation Xrotation
		JOINT lknee
		{
			OFFSET 0.043451 -0.386469 0.008037
			CHANNELS 3 Zrotation Yrotation Xrotation
			JOINT lankle
			{
				OFFSET -0.014790 -0.426874 -0.037428
				CHANNELS 3 Zrotation Yrotation Xrotation
				JOINT ltoe
				{
					OFFSET 0.041054 -0.060286 0.122042
					CHANNELS 3 Zrotation Yrotation Xrotation
					End Site
					{
						OFFSET 0.000000 0.000000 0.000000
					}
				}
			}
		}
	}
	JOINT rhip
	{
		OFFSET -0.060310 -0.090513 -0.013543
		CHANNELS 3 Zrotation Yrotation Xrotation
		JOINT rknee
		{
			OFFSET -0.043257 -0.383688 -0.004843
			CHANNELS 3 Zrotation Yrotation Xrotation
			JOINT rankle
			{
				OFFSET 0.019056 -0.420046 -0.034562
				CHANNELS 3 Zrotation Yrotation Xrotation
				JOINT rtoe
				{
					OFFSET -0.034840 -0.062106 0.130323
					CHANNELS 3 Zrotation Yrotation Xrotation
					End Site
					{
						OFFSET 0.000000 0.000000 0.000000
					}
				}
			}
		}
	}
	JOINT lowerback
	{
		OFFSET 0.004439 0.124404 -0.038385
		CHANNELS 3 Zrotation Yrotation Xrotation
		JOINT upperback
		{
			OFFSET 0.004488 0.137956 0.026820
			CHANNELS 3 Zrotation Yrotation Xrotation
			JOINT chest
			{
				OFFSET -0.002265 0.056032 0.002855
				CHANNELS 3 Zrotation Yrotation Xrotation
				JOINT lowerneck
				{
					OFFSET -0.013390 0.211636 -0.033468
					CHANNELS 3 Zrotation Yrotation Xrotation
					JOINT upperneck
					{
						OFFSET 0.010113 0.088937 0.050410
						CHANNELS 3 Zrotation Yrotation Xrotation
						End Site
						{
							OFFSET 0.000000 0.000000 0.000000
						}
					}
				}
				JOINT lclavicle
				{
					OFFSET 0.071702 0.114000 -0.018898
					CHANNELS 3 Zrotation Yrotation Xrotation
					JOINT lshoulder
					{
						OFFSET 0.122921 0.045205 -0.019046
						CHANNELS 3 Zrotation Yrotation Xrotation
						JOINT lelbow
						{
							OFFSET 0.255332 -0.015649 -0.022946
							CHANNELS 3 Zrotation Yrotation Xrotation
							JOINT lwrist
							{
								OFFSET 0.265709 0.012698 -0.007375
								CHANNELS 3 Zrotation Yrotation Xrotation
								End Site
								{
									OFFSET 0.000000 0.000000 0.000000
								}
							}
						}
					}
				}
				JOINT rclavicle
				{
					OFFSET -0.082954 0.112472 -0.023707
					CHANNELS 3 Zrotation Yrotation Xrotation
					JOINT rshoulder
					{
						OFFSET -0.113228 0.046853 -0.008472
						CHANNELS 3 Zrotation Yrotation Xrotation
						JOINT relbow
						{
							OFFSET -0.260127 -0.014369 -0.031269
							CHANNELS 3 Zrotation Yrotation Xrotation
							JOINT rwrist
							{
								OFFSET -0.269108 0.006794 -0.006027
								CHANNELS 3 Zrotation Yrotation Xrotation
								End Site
								{
									OFFSET 0.000000 0.000000 0.000000
								}
							}
						}
					}
				}
			}
		}
	}
}
MOTION
Frames: 18
Frame Time: 0.033333
0.504848 0.752177 0.992060 -85.137705 4.587411 87.404265 3.314920 0.364514 6.629391 -2.148891 -14.596514 1.231784 4.787276 8.250227 -17.063004 0.000000 -0.000000 0.000000 2.888241 -0.649310 2.577646 2.871391 4.002335 8.365354 4.089533 -4.571044 -12.480274 0.000000 -0.000000 0.000000 -1.735453 0.707307 5.168944 1.945959 -3.037630 0.516140 1.545389 -2.813470 3.960543 4.977653 -1.840702 -9.597610 4.919361 -6.844884 -5.816053 -29.376517 2.611941 1.225736 -57.794593 -4.705379 7.180920 8.740318 -17.255643 3.977155 -2.787470 -0.533344 -5.151286 26.427765 -1.493470 -2.267251 59.370144 0.885536 11.092774 -13.442582 24.105903 -4.061448 6.607123 -0.433224 -8.334432 
0.506054 0.751880 0.991004 -85.335011 4.569467 86.875795 3.342862 0.496623 7.001210 -2.207670 -14.354250 1.345072 4.725821 7.974777 -17.008257 0.000000 -0.000000 0.000000 2.765880 -0.886533 3.062653 2.896831 3.810653 8.269555 3.645444 -4.047965 -12.267354 0.000000 -0.000000 0.000000 -1.550290 0.076351 5.531761 1.790516 -3.635427 1.478378 1.334387 -2.207486 3.367351 4.369678 -1.976356 -8.179046 3.770222 -7.085675 -6.077779 -28.711616 3.041674 0.968384 -58.423693 -4.872546 7.183543 8.862614 -17.982954 4.034356 -3.246058 -0.540356 -6.119647 25.804949 -0.577231 -1.855996 60.379746 1.580983 11.312359 -13.655332 23.378784 -4.292040 6.503810 -0.730174 -9.027077 
0.507081 0.751453 0.991145 -85.555092 4.536256 87.002361 3.228155 0.304470 6.858752 -2.206616 -14.031437 1.350166 4.582918 8.346715 -16.806275 0.000000 -0.000000 0.000000 2.715702 -0.614174 2.815817 2.933681 3.890921 8.249984 3.730877 -4.071773 -12.120263 0.000000 -0.000000 0.000000 -1.559768 0.135173 5.255039 1.814716 -3.548301 1.527282 1.329690 -2.187658 3.533964 4.711580 -2.098184 -8.652054 3.766586 -7.358173 -5.663628 -28.831730 2.962505 0.812296 -58.501098 -5.177142 7.474087 8.886606 -18.517238 3.911751 -3.392096 -0.607091 -6.199791 25.861101 -0.470250 -1.926187 60.347960 1.787784 11.448624 -13.766414 23.110497 -4.612881 6.382907 -0.642464 -8.939986 
0.507883 0.751184 0.991433 -85.533637 4.532295 86.950065 3.197760 0.200034 6.817078 -2.227240 -14.041516 1.436908 4.564174 8.342666 -16.847810 0.000000 -0.000000 0.000000 2.709379 -0.574059 2.922143 2.923238 3.888520 8.079868 3.773043 -4.179232 -12.037508 0.000000 -0.000000 0.000000 -1.655593 0.335251 5.077007 1.951272 -3.471334 1.732685 1.439078 -2.345685 3.695309 4.940839 -2.232222 -9.398669 3.821933 -7.578060 -5.644092 -29.025839 2.684791 0.686677 -58.645884 -5.521017 7.721270 8.955184 -19.224573 3.755112 -3.036397 -0.647911 -6.086196 25.837434 -0.373736 -2.039428 60.210906 1.733771 11.493780 -13.879903 23.315985 -4.885722 6.237370 -0.622623 -8.931120 
0.508707 0.750935 0.991511 -85.531670 4.515307 87.035191 3.116041 0.070679 6.586163 -2.207464 -13.909494 1.575318 4.626202 8.406038 -16.877611 0.000000 -0.000000 0.000000 2.704237 -0.462882 2.687630 2.883641 3.792346 8.289532 3.838680 -4.214811 -12.048691 0.000000 -0.000000 0.000000 -1.561380 0.343022 5.080112 1.916505 -3.430254 1.546471 1.358419 -2.372009 3.750281 4.921283 -2.169184 -9.425483 3.732414 -7.619603 -5.300201 -29.008223 2.691133 0.642325 -58.792954 -5.705393 7.858160 9.003460 -19.627511 3.710825 -3.041245 -0.846241 -6.245868 25.917115 -0.417945 -2.052792 60.244806 1.746187 11.638642 -14.077370 23.341520 -4.948183 6.205549 -0.545031 -8.898308 
0.509135 0.750875 0.991474 -85.584882 4.498217 86.884407 3.120093 0.142422 6.690131 -2.260748 -13.918607 1.645006 4.756839 8.355027 -16.935691 0.000000 -0.000000 0.000000 2.613649 -0.493267 2.821248 2.952707 3.672489 8.292976 3.842523 -4.040797 -12.004216 0.000000 -0.000000 0.000000 -1.561630 0.343470 5.263875 1.861522 -3.441504 1.496739 1.392692 -2.334619 3.600190 4.258003 -1.977611 -8.348720 3.645515 -7.046451 -5.684528 -28.834503 2.655788 0.827196 -59.106270 -5.776187 7.858652 8.879689 -20.393053 4.101539 -3.306586 -0.715578 -6.662128 25.733234 -0.437494 -1.728392 60.448170 1.806664 11.390897 -14.122657 23.568868 -4.843388 6.382222 -0.581210 -9.028645 
0.509504 0.750692 0.991545 -85.558651 4.496465 86.887987 3.093925 0.105541 6.646572 -2.249982 -13.900157 1.611327 4.798337 8.235744 -16.883916 0.000000 -0.000000 0.000000 2.662815 -0.402597 2.719380 2.856622 3.647335 8.389658 3.845215 -4.116064 -12.054323 0.000000 -0.000000 0.000000 -1.586454 0.320134 5.244685 1.866221 -3.414670 1.366802 1.379169 -2.345598 3.542037 4.278758 -2.097058 -8.358632 3.676451 -7.124505 -5.665062 -28.829986 2.633447 0.975769 -59.264855 -5.909772 8.052425 8.814878 -21.074628 4.407475 -3.534797 -0.741876 -6.754081 25.748433 -0.486802 -1.720453 60.425663 1.695446 11.370371 -14.037790 23.578477 -4.851643 6.561129 -0.567869 -9.138921 
0.509922 0.750533 0.991746 -85.629254 4.444432 86.889843 3.012544 0.123659 6.669025 -2.213801 -13.952292 1.460521 4.968549 8.074853 -17.004660 0.000000 -0.000000 0.000000 2.600402 -0.342459 2.650855 2.845195 3.631326 8.476158 3.915686 -4.115873 -12.083700 0.000000 -0.000000 0.000000 -1.625659 0.320895 5.294734 1.860423 -3.359560 1.135649 1.371179 -2.398317 3.611488 4.293885 -2.090076 -8.206416 3.600035 -7.174553 -5.361767 -28.816585 2.725473 0.901716 -59.480537 -6.012797 8.234250 8.825851 -21.289445 4.548684 -3.285812 -1.258097 -6.801862 25.715282 -0.580685 -1.833715 60.398898 1.609392 11.565338 -13.858665 23.577701 -4.643690 6.432699 -0.402354 -9.181436 
0.510231 0.750414 0.991854 -85.685515 4.445986 86.877627 2.963552 0.165755 6.633036 -2.175366 -13.845848 1.624246 4.815064 8.385029 -16.858218 0.000000 -0.000000 0.000000 2.571947 -0.403557 2.587767 2.852650 3.675558 8.572149 3.964584 -4.011108 -12.103077 0.000000 -0.000000 0.000000 -1.625572 0.328059 5.255030 1.869875 -3.344771 1.084020 1.361537 -2.397115 3.648718 4.276667 -2.222317 -8.021943 3.622932 -7.277490 -5.091225 -28.875932 2.718895 0.815120 -59.573618 -6.141941 8.325782 8.626921 -21.499342 4.476812 -3.107221 -1.120406 -6.756638 25.819228 -0.549203 -1.733588 60.273735 1.631423 11.601629 -13.874677 23.634464 -4.769918 6.422535 -0.402835 -9.137135 
0.510340 0.750446 0.991888 -85.841299 4.443729 86.726668 2.934287 0.233132 6.933892 -2.119760 -13.907581 1.433380 4.863084 8.472487 -16.799006 0.000000 -0.000000 0.000000 2.558733 -0.346619 2.796861 2.824521 3.719393 8.451756 3.965209 -4.001754 -12.054231 0.000000 -0.000000 0.000000 -1.638025 0.308584 5.315623 1.890059 -3.328423 1.182599 1.374165 -2.377896 3.601540 4.257493 -2.242141 -7.744742 3.573913 -7.206635 -5.083409 -29.026791 2.576200 0.873223 -59.590914 -6.171280 8.376187 8.798755 -21.677103 4.546037 -3.431417 -0.928977 -6.760478 25.802575 -0.426585 -1.642694 60.302766 1.656336 11.573929 -13.895190 23.598122 -4.806528 6.588557 -0.494830 -9.095074 
0.510646 0.750604 0.991873 -85.874852 4.491272 86.723070 3.009555 0.285194 6.920493 -2.141853 -13.879133 1.446797 4.779397 8.434462 -16.844249 0.000000 -0.000000 0.000000 2.587749 -0.362183 2.775297 2.866138 3.805994 8.469742 3.976929 -3.938823 -12.089565 0.000000 -0.000000 0.000000 -1.606060 0.295868 5.356435 1.903091 -3.320544 1.083768 1.386548 -2.398896 3.619639 4.256577 -2.256199 -7.627571 3.544324 -7.262200 -4.908699 -29.048452 2.542445 0.845702 -59.737485 -6.229209 8.424439 8.872468 -21.511595 4.495002 -3.174152 -0.883776 -6.649452 25.801312 -0.399402 -1.633606 60.327244 1.681597 11.594818 -13.902930 23.480141 -4.830304 6.461743 -0.515372 -9.017269 
0.510976 0.750594 0.991994 -85.917347 4.493215 86.840957 2.964638 0.220971 6.803178 -2.096777 -13.897555 1.384400 4.738859 8.440040 -16.823839 0.000000 -0.000000 0.000000 2.590236 -0.332003 2.641807 2.858031 3.889570 8.421920 3.993995 -4.043589 -11.980046 0.000000 -0.000000 0.000000 -1.583402 0.258323 5.291420 1.931210 -3.342372 0.976571 1.387283 -2.377642 3.698096 4.789862 -2.747932 -8.892396 3.760655 -7.937247 -5.138249 -29.223211 2.586054 0.647395 -59.537717 -6.167793 8.531908 8.701117 -21.321839 4.619020 -3.283030 -1.173216 -6.636227 25.848029 -0.386083 -1.851929 60.258855 1.564624 11.707197 -13.835652 23.324425 -4.806945 6.411909 -0.405602 -8.984154 
0.511109 0.750766 0.991884 -85.953318 4.498318 86.834525 2.972308 0.256794 6.842086 -2.080809 -13.846549 1.367109 4.724422 8.414197 -16.792941 0.000000 -0.000000 0.000000 2.560169 -0.414244 2.681250 2.879465 3.906617 8.364490 4.022535 -4.025440 -11.948902 0.000000 -0.000000 0.000000 -1.596405 0.272615 5.342582 1.928978 -3.364383 0.924177 1.386760 -2.405220 3.665649 4.783361 -2.899995 -8.675404 3.848646 -8.000602 -5.135349 -29.192526 2.622558 0.695785 -59.531871 -6.159249 8.465939 8.671538 -21.177511 4.529017 -3.111039 -1.088778 -6.571913 25.818125 -0.350773 -1.843125 60.252958 1.488125 11.731906 -13.719663 23.324476 -4.701980 6.407280 -0.482316 -8.952972 
0.511412 0.750854 0.991815 -85.904851 4.522520 86.840327 3.011664 0.220827 6.783741 -2.119331 -13.865090 1.453872 4.739233 8.487927 -16.825401 0.000000 -0.000000 0.000000 2.596635 -0.397290 2.689318 2.877067 3.831241 8.324767 3.998783 -3.968648 -12.010983 0.000000 -0.000000 0.000000 -1.572455 0.228813 5.406866 1.937429 -3.403447 0.841775 1.380276 -2.392010 3.657480 4.766463 -2.947420 -8.526398 3.794353 -7.977969 -5.123219 -29.166400 2.674107 0.746681 -59.447875 -6.131964 8.439077 8.556435 -21.016988 4.569892 -3.297108 -0.998080 -6.531519 25.774411 -0.336026 -1.858144 60.374382 1.389991 11.690564 -13.812308 23.232165 -4.745825 6.469657 -0.572716 -9.014992 
0.511574 0.750981 0.991929 -85.923605 4.498067 86.874984 2.983848 0.186057 6.721590 -2.111605 -13.826620 1.491955 4.800558 8.558482 -16.798052 0.000000 -0.000000 0.000000 2.609678 -0.398992 2.653455 2.822786 3.892671 8.285749 4.015190 -4.168738 -11.877065 0.000000 -0.000000 0.000000 -1.652799 0.229380 5.387588 1.981807 -3.415139 0.782916 1.430898 -2.447875 3.732240 5.035637 -3.164329 -9.205023 3.844083 -8.300878 -5.106956 -29.303133 2.799665 0.609092 -59.298457 -6.074104 8.371105 8.443658 -20.556697 4.375877 -3.262219 -1.065444 -6.411393 25.904038 -0.352095 -2.001854 60.180437 1.327871 11.820384 -13.794700 23.156602 -4.814096 6.353855 -0.586569 -8.792613 
0.511520 0.751095 0.991666 -85.888371 4.537115 86.784018 3.064500 0.261249 6.781981 -2.160786 -13.887769 1.546969 4.734814 8.439149 -16.882732 0.000000 -0.000000 0.000000 2.648256 -0.477950 2.731530 2.852125 3.907586 8.351603 3.987200 -4.065517 -11.984823 0.000000 -0.000000 0.000000 -1.627835 0.191593 5.507935 1.942530 -3.443329 0.770325 1.430841 -2.433596 3.653920 4.457183 -2.860569 -8.524772 3.601510 -7.861201 -5.304736 -29.112143 2.789586 0.812131 -59.366622 -5.961284 8.228382 8.629150 -20.254225 4.588154 -3.266771 -1.029754 -6.544932 25.904750 -0.404647 -1.882067 60.226048 1.376193 11.655856 -13.753700 23.064225 -4.670586 6.381628 -0.603695 -8.840349 
0.511917 0.751141 0.991556 -85.826481 4.541919 86.822388 3.061360 0.160765 6.692160 -2.188162 -13.977014 1.521258 4.811503 8.314134 -16.938217 0.000000 -0.000000 0.000000 2.631797 -0.465430 2.666848 2.885107 3.848718 8.386802 3.934681 -4.135371 -11.943544 0.000000 -0.000000 0.000000 -1.676110 0.167229 5.539038 1.969040 -3.503419 0.782532 1.481490 -2.429765 3.665366 4.492231 -2.859570 -8.556753 3.522006 -7.927983 -5.326823 -29.076885 2.789269 0.887593 -59.235126 -5.769893 8.192204 8.550043 -20.131629 4.613141 -3.462731 -0.968226 -6.429456 25.904233 -0.364010 -1.804216 60.233191 1.426376 11.618654 -13.831462 22.895716 -4.666508 6.435427 -0.533090 -8.788581 
0.512132 0.751145 0.991367 -85.818042 4.550966 86.746337 3.097810 0.269448 6.683495 -2.232773 -13.964277 1.678067 4.799052 8.384732 -16.934349 0.000000 -0.000000 0.000000 2.606048 -0.578918 2.645863 2.906004 3.763790 8.523208 3.957089 -3.909279 -11.985435 0.000000 -0.000000 0.000000 -1.676705 0.148526 5.714400 1.914302 -3.562374 0.743493 1.548352 -2.401300 3.474049 3.766475 -2.583435 -7.663685 3.466316 -7.304465 -5.797189 -28.841075 2.785834 1.118293 -59.509156 -5.628535 7.910091 8.813923 -19.782425 4.475082 -3.238942 -0.635957 -6.509286 25.794181 -0.416903 -1.640195 60.343973 1.482026 11.349786 -13.743165 22.722066 -4.454872 6.493343 -0.627628 -8.764261 
